<svg width="40" height="40" viewBox="0 0 40 40" fill="none" xmlns="http://www.w3.org/2000/svg">
<path d="M37.4329 17.1163C36.126 16.5581 34.3057 16.0465 32.112 15.6279C30.8518 11.907 27.8646 8.97674 24.1774 7.67442C24.084 7.16279 23.944 6.65116 23.8506 6.18605C22.8705 2.09302 21.5169 0 19.8833 0C18.8098 0 17.8763 0.883721 17.1295 2.60465C16.5694 3.86047 16.056 5.62791 15.6826 7.76744C11.9953 9.06977 9.05484 12.0465 7.84131 15.814C5.64761 16.2326 3.8273 16.7442 2.56709 17.3488C0.84014 18.1395 0 19.0698 0 20.1395C0 21.7674 2.10035 23.0698 6.25438 24C6.81447 24.1395 7.42124 24.2326 8.02801 24.3721C9.38156 27.8605 12.2287 30.6512 15.776 31.907C16.4761 35.6744 17.783 40 20.1167 40C21.7503 40 23.0572 37.907 23.9907 33.7674C24.1307 33.1628 24.2707 32.5116 24.3641 31.8605C27.9113 30.5581 30.7118 27.7674 32.0187 24.2326C32.6254 24.1395 33.2322 24 33.7923 23.8605C37.9463 22.8837 40.0467 21.5349 40 19.907C40 18.7907 39.1132 17.8605 37.4329 17.1163ZM31.2252 19.7674C31.2252 20.7907 31.0852 21.814 30.8051 22.7907C29.0782 23.0698 27.1645 23.3023 25.1575 23.4419C25.2042 22.2791 25.2042 21.1163 25.2042 19.9535C25.2042 19.4884 25.2042 19.0233 25.2042 18.5581L27.9113 18.3256C28.1914 18.2791 28.4714 18.093 28.5648 17.814C28.6581 17.5349 28.6114 17.2093 28.4247 16.9767L24.9242 13.2558C24.7841 11.9535 24.6441 10.6977 24.4574 9.48837C28.4247 11.2093 31.2252 15.1628 31.2252 19.7674ZM19.8833 1.53488C19.8833 1.53488 21.1435 1.5814 22.3104 6.51163C22.3571 6.74419 22.4037 6.97674 22.4504 7.2093C21.6569 7.06977 20.8168 6.97674 19.9767 6.97674C19.0898 6.97674 18.203 7.06977 17.3629 7.25581C18.203 3.11628 19.3232 1.53488 19.8833 1.53488ZM19.9767 8.55814C20.9568 8.55814 21.8903 8.69767 22.7771 8.93023C23.0105 10.4186 23.2439 12 23.3839 13.7209L20.7701 17.6744C20.5834 17.907 20.5834 18.2326 20.7701 18.5116C20.9102 18.7442 21.1902 18.8837 21.4236 18.8837H21.4702L23.6173 18.6977C23.6173 19.1163 23.6173 19.5349 23.6173 19.9535C23.6173 21.1628 23.6173 22.3721 23.5706 23.5349C22.4037 23.5814 21.1902 23.6279 19.9767 23.6279C19.8366 23.6279 19.6966 23.6279 19.5566 23.6279V21.0698C19.5566 20.7907 19.3699 20.5116 19.0898 20.3721C18.8098 20.2326 18.4831 20.2791 18.2497 20.4651L14.4224 23.4884C12.5554 23.3488 10.7818 23.1628 9.14819 22.9302C8.86814 21.9535 8.68145 20.8837 8.68145 19.7674C8.72812 13.5814 13.769 8.55814 19.9767 8.55814ZM6.53442 22.4186C1.54026 21.3023 1.49358 20.093 1.49358 20.0465C1.49358 19.7674 1.91365 19.2558 3.17386 18.6977C4.2007 18.2326 5.64761 17.814 7.37456 17.4419C7.23454 18.186 7.14119 18.9767 7.14119 19.7674C7.14119 20.7442 7.23454 21.6744 7.46791 22.6047C7.18787 22.5581 6.86114 22.4651 6.53442 22.4186ZM9.80163 24.6047C11.2019 24.7907 12.7421 24.9302 14.3291 25.0698L18.2964 28.1395C18.4364 28.2326 18.6231 28.3256 18.7631 28.3256C19.1832 28.3256 19.5566 27.9535 19.5566 27.5349V27.4884V25.2558C19.6966 25.2558 19.8366 25.2558 19.9767 25.2558C21.1902 25.2558 22.3571 25.2093 23.4772 25.1628C23.3839 27.1163 23.1505 28.9767 22.9172 30.6512C21.9837 30.9302 20.9568 31.0698 19.93 31.0698C15.4959 30.9767 11.6219 28.3721 9.80163 24.6047ZM22.4504 33.3023C21.3302 38.2791 20.1167 38.3256 20.07 38.3256C19.79 38.3256 19.2765 37.907 18.7165 36.6512C18.203 35.5814 17.783 34.0465 17.4096 32.2791C18.2497 32.4651 19.0898 32.5116 19.9767 32.5116C20.9102 32.5116 21.797 32.4186 22.6838 32.2326C22.5904 32.6047 22.5438 32.9767 22.4504 33.3023ZM24.6441 29.9535C24.8308 28.4186 25.0175 26.7442 25.1109 24.9767C26.8845 24.8372 28.6114 24.6512 30.1984 24.4186C29.0782 26.8837 27.0712 28.8372 24.6441 29.9535ZM33.4189 22.2326C33.1389 22.3256 32.8121 22.3721 32.4854 22.4186C32.6721 21.5349 32.7655 20.6512 32.7655 19.7209C32.7655 18.8837 32.6721 18.0465 32.5321 17.2558C36.7795 18.093 38.4131 19.2093 38.4131 19.7674C38.4597 19.8605 38.4131 21.0698 33.4189 22.2326Z" fill="#42949B"/>
</svg>
